<svg width="123" height="32" viewBox="0 0 123 32" fill="none" xmlns="http://www.w3.org/2000/svg">
<path d="M19.3867 4.4353C19.3867 4.33041 19.4465 4.23449 19.5411 4.18743L27.5557 0.201717C27.7419 0.109124 27.9613 0.243209 27.9613 0.44958V27.7346L19.3867 31.9988V4.4353Z" fill="#0035F0"/>
<path fill-rule="evenodd" clip-rule="evenodd" d="M11.2181 19.4439C11.0319 19.3513 10.8125 19.4854 10.8125 19.6918V27.5648C10.8125 27.6697 10.8722 27.7656 10.9669 27.8127L19.3871 32.0001L27.9617 27.7706L19.3871 23.5064L11.2181 19.4439Z" fill="#4CDAF5"/>
<path d="M8.57422 27.5647C8.57422 27.6696 8.51449 27.7655 8.41985 27.8126L0.405222 31.7983C0.219032 31.8909 -0.000387185 31.7568 -0.000387167 31.5504L-0.000384736 4.2654L8.57422 0.00121117L8.57422 27.5647Z" fill="#0035F0"/>
<path fill-rule="evenodd" clip-rule="evenodd" d="M16.7428 12.5561C16.929 12.6487 17.1484 12.5146 17.1484 12.3082L17.1484 4.43519C17.1484 4.3303 17.0887 4.23438 16.9941 4.18732L8.57383 -0.000104686L8.57383 -0.000138065L-0.000773639 4.22939L8.57383 8.49358L8.57383 8.49361L16.7428 12.5561Z" fill="#4CDAF5"/>
<path d="M57.9749 9.34914L57.6546 11.7291L45.6646 17.7355H56.3275L57.8148 16.3982L57.3114 19.9568H40.3789L40.745 17.3729L51.9571 11.5251H41.0654L41.3628 9.34914H57.9749Z" fill="black"/>
<path d="M75.3404 14.8569L74.3107 11.2304L73.3954 17.7808H77.926L78.9328 16.9195L78.4523 20.3194H69.1623L71.1073 6.56124H61.7486L62.0461 4.38532H75.2946L74.631 8.98649L76.9421 6.03993H80.1455L77.0794 9.77979H74.5166L74.448 10.2784H76.965L78.8184 14.8569H75.3404Z" fill="black"/>
<path d="M97.6483 6.56124L96.1381 17.1235H93.5524L95.0626 6.56124H97.6483ZM102.064 4.36265L99.9822 19.0955C99.9212 19.5186 99.7229 19.8283 99.3873 20.0248C99.0517 20.2061 98.6703 20.2968 98.2432 20.2968H94.788L96.7559 18.3475L98.7737 4.36265H102.064ZM81.9056 20.1154L83.3701 9.7118H93.0033L92.2711 14.8796C92.21 15.3027 92.0956 15.5898 91.9278 15.7409C91.7753 15.892 91.4778 15.9676 91.0354 15.9676H86.9167L88.8159 14.4263L89.2049 11.6384H86.6193L85.7726 17.6222H92.3855L93.2779 16.9875L92.8431 20.1154H81.9056ZM86.4359 4.04533H92.2024L93.9185 9.46247H90.2117L88.9303 6.24392H88.7702L86.5964 9.46247H82.7065L86.4359 4.04533Z" fill="black"/>
<path d="M111.09 4H114.556L114.076 5.7226H122.999L122.702 7.87586H117.897L117.554 10.2558H121.489L121.192 12.3864H117.256L116.913 14.7663H121.283L120.986 16.9195H116.615L116.135 20.3194H111.993L113.755 7.87586H113.481L112.771 10.4598H109.293L111.09 4ZM109.202 6.58391L107.234 20.3194H103.092L104.946 7.42255L103.596 7.67187L103.962 5.08796L109.568 4L109.202 6.58391Z" fill="black"/>
<path d="M59.3934 5.31409H56.7849L56.9679 4.02213H52.6457L52.4374 5.31409H48.9593L49.1424 4.02213H44.8542L44.6118 5.31409H41.1338L40.8363 7.46735H44.2915L44.1542 8.53264H48.5017L48.639 7.46735H52.117L51.9797 8.53264H56.3273L56.4645 7.46735H59.0959L59.3934 5.31409Z" fill="black"/>
<path d="M42.27 25.9058L40.3789 30.6657H40.9711L41.4826 29.3324H43.69L44.2015 30.6657H44.8005L42.9094 25.9058H42.27ZM41.6576 28.8724L42.5796 26.4925H42.6065L43.515 28.8724H41.6576Z" fill="black"/>
<path d="M48.2477 25.9058V30.6657H48.7996V28.6191H50.2532C50.5561 28.6191 50.7849 28.6724 50.9464 28.7924C51.1214 28.9124 51.2223 29.119 51.2492 29.399L51.3098 30.0324C51.33 30.299 51.3973 30.5057 51.505 30.6657H52.1039C51.9626 30.4923 51.8751 30.259 51.8482 29.9657L51.7742 29.2324C51.7203 28.7524 51.4646 28.4657 51.007 28.3657V28.3524C51.2829 28.2857 51.4983 28.1524 51.6598 27.9391C51.8078 27.7324 51.8819 27.4991 51.8819 27.2324C51.8819 26.7925 51.7338 26.4591 51.4511 26.2325C51.1752 26.0125 50.7983 25.9058 50.3205 25.9058H48.2477ZM48.7996 26.3791H50.2532C50.6234 26.3791 50.8993 26.4525 51.0743 26.5991C51.2358 26.7391 51.3233 26.9591 51.3233 27.2524C51.3233 27.5324 51.2358 27.7458 51.0675 27.8991C50.8791 28.0591 50.6032 28.1458 50.2532 28.1458H48.7996V26.3791Z" fill="black"/>
<path d="M55.3867 25.9058V26.3791H57.0826V30.6657H57.6277V26.3791H59.3237V25.9058H55.3867Z" fill="black"/>
<path d="M62.8847 25.9058V30.6657H63.4366V28.4524H65.9603V27.9791H63.4366V26.3791H66.1016V25.9058H62.8847Z" fill="black"/>
<path d="M69.2792 25.9058L71.1972 28.7324V30.6657H71.749V28.7324L73.6671 25.9058H73.0008L71.4731 28.2257L69.9454 25.9058H69.2792Z" fill="black"/>
<path d="M82.3495 25.9058V30.6657H84.0185C84.7722 30.6657 85.351 30.4457 85.7548 30.0124C86.1384 29.599 86.3336 29.0191 86.3336 28.2857C86.3336 27.5391 86.1519 26.9591 85.7952 26.5591C85.4048 26.1192 84.8328 25.9058 84.0723 25.9058H82.3495ZM82.9013 26.3791H83.9848C84.6174 26.3791 85.0751 26.5391 85.3712 26.8658C85.6471 27.1725 85.7884 27.6458 85.7884 28.2857C85.7884 28.9057 85.6337 29.379 85.3375 29.699C85.0212 30.0257 84.5501 30.1923 83.9243 30.1923H82.9013V26.3791Z" fill="black"/>
<path d="M90.0623 25.9058V30.6657H93.5821V30.1923H90.6142V28.4457H93.3061V27.9724H90.6142V26.3791H93.4676V25.9058H90.0623Z" fill="black"/>
<path d="M98.9237 25.8125C98.4257 25.8125 98.0152 25.9192 97.6989 26.1325C97.3422 26.3591 97.1672 26.6858 97.1672 27.0991C97.1672 27.4991 97.3489 27.8058 97.7191 28.0191C97.8738 28.0991 98.244 28.2324 98.8228 28.4057C99.3612 28.5591 99.7044 28.6724 99.839 28.7524C100.155 28.9191 100.317 29.1524 100.317 29.4524C100.317 29.7057 100.196 29.9057 99.9534 30.0523C99.7111 30.199 99.3881 30.2723 98.9977 30.2723C98.567 30.2723 98.244 30.179 98.0219 30.0057C97.7796 29.8124 97.6316 29.5057 97.5845 29.0924H97.0393C97.0797 29.679 97.2883 30.1123 97.6652 30.399C97.9883 30.639 98.4324 30.759 98.9977 30.759C99.5698 30.759 100.021 30.639 100.357 30.4057C100.694 30.1657 100.862 29.8324 100.862 29.419C100.862 28.9857 100.66 28.6524 100.263 28.4124C100.061 28.2924 99.6438 28.1391 99.0112 27.9524C98.5468 27.8191 98.2507 27.7191 98.1296 27.6524C97.8537 27.5058 97.7191 27.3124 97.7191 27.0725C97.7191 26.7991 97.8335 26.5991 98.0623 26.4658C98.2642 26.3458 98.5401 26.2925 98.8968 26.2925C99.2871 26.2925 99.59 26.3725 99.8053 26.5458C100.014 26.7125 100.149 26.9658 100.209 27.3124H100.754C100.707 26.8125 100.525 26.4325 100.202 26.1792C99.8928 25.9325 99.4621 25.8125 98.9237 25.8125Z" fill="black"/>
<path d="M104.562 25.9058V30.6657H105.107V25.9058H104.562Z" fill="black"/>
<path d="M111.133 25.8125C110.426 25.8125 109.868 26.0592 109.457 26.5591C109.067 27.0191 108.878 27.5991 108.878 28.3057C108.878 29.0124 109.073 29.5924 109.464 30.039C109.881 30.519 110.473 30.759 111.234 30.759C111.631 30.759 112.001 30.7057 112.351 30.599C112.681 30.4923 112.963 30.3523 113.192 30.1657V28.2191H111.139V28.6924H112.647V29.9057C112.479 30.0124 112.277 30.1057 112.041 30.1723C111.799 30.239 111.55 30.279 111.288 30.279C110.662 30.279 110.191 30.0923 109.874 29.7257C109.578 29.379 109.43 28.9057 109.43 28.3057C109.43 27.6924 109.578 27.2058 109.888 26.8458C110.197 26.4791 110.608 26.2991 111.133 26.2991C111.557 26.2991 111.9 26.3991 112.162 26.6058C112.411 26.7991 112.573 27.0725 112.647 27.4324H113.199C113.111 26.9125 112.903 26.5191 112.566 26.2458C112.21 25.9525 111.732 25.8125 111.133 25.8125Z" fill="black"/>
<path d="M117.076 25.9058V30.6657H117.627V26.7525H117.648L120.38 30.6657H120.945V25.9058H120.393V29.779H120.373L117.654 25.9058H117.076Z" fill="black"/>
</svg>
