<svg width="28" height="28" viewBox="0 0 28 28" fill="none" xmlns="http://www.w3.org/2000/svg">
<path d="M11.687 9.91641C12.8219 9.30582 13.3706 8.12087 12.9126 7.26975C12.4547 6.41862 11.1635 6.22363 10.0287 6.83422C8.89385 7.44481 8.34512 8.62976 8.80306 9.48088C9.26101 10.332 10.5522 10.527 11.687 9.91641Z" fill="#8AFF00"/>
<path d="M20.4952 10.9516C21.0691 10.9561 21.5351 10.2591 21.5359 9.39464C21.5367 8.53022 21.0721 7.82579 20.4982 7.82126C19.9242 7.81672 19.4582 8.51379 19.4574 9.37821C19.4566 10.2426 19.9212 10.9471 20.4952 10.9516Z" fill="#8AFF00"/>
<path d="M20.2057 15.6143C20.7796 15.6188 21.2456 14.9217 21.2464 14.0573C21.2472 13.1929 20.7826 12.4885 20.2087 12.4839C19.6347 12.4794 19.1687 13.1765 19.1679 14.0409C19.1671 14.9053 19.6317 15.6097 20.2057 15.6143Z" fill="#8AFF00"/>
<path d="M21.0921 18.7632C21.0913 19.6276 20.6253 20.3247 20.0514 20.3202C19.4774 20.3156 19.0128 19.6112 19.0136 18.7468C19.0144 17.8824 19.4804 17.1853 20.0543 17.1898C20.6283 17.1944 21.0929 17.8988 21.0921 18.7632Z" fill="#8AFF00"/>
<path d="M8.72143 18.2658C8.38268 18.8139 7.44158 18.8464 6.61943 18.3382C5.79728 17.8301 5.40541 16.9739 5.74416 16.4258C6.08291 15.8777 7.024 15.8453 7.84615 16.3534C8.6683 16.8615 9.06017 17.7177 8.72143 18.2658Z" fill="#8AFF00"/>
<path d="M14.5625 21.7443C14.2237 22.2924 13.2826 22.3248 12.4605 21.8167C11.6383 21.3085 11.2465 20.4523 11.5852 19.9042C11.924 19.3561 12.8651 19.3237 13.6872 19.8318C14.5094 20.3399 14.9012 21.1962 14.5625 21.7443Z" fill="#8AFF00"/>
<path fill-rule="evenodd" clip-rule="evenodd" d="M20.755 2.7822L8.13821 2.72462C7.94036 2.72371 7.75555 2.82315 7.64729 2.98875L0.743515 13.5492C0.626575 13.7281 0.616814 13.9566 0.718074 14.1448L6.77615 25.4043C6.87797 25.5935 7.07558 25.7114 7.29047 25.7112L19.869 25.6978C20.0645 25.6976 20.2469 25.5994 20.3548 25.4364L27.2968 14.9469C27.4154 14.7677 27.4259 14.5378 27.3241 14.3486L21.266 3.08913C21.1647 2.90093 20.9687 2.78317 20.755 2.7822ZM8.45018 3.89272L19.3398 3.94242L13.3759 13.0652L2.48627 13.0155L8.45018 3.89272ZM14.3685 13.6789L20.5508 4.22214L26.1313 14.5941L19.9148 23.9873L14.3685 13.6789ZM13.3411 14.2317L18.8832 24.5322L7.6382 24.5442L2.06196 14.1803L13.3411 14.2317Z" fill="#8AFF00"/>
</svg>
