<svg width="20" height="20" viewBox="0 0 20 20" fill="none" xmlns="http://www.w3.org/2000/svg">
<path d="M17.15 9.2C17.15 4.80935 13.5906 1.25 9.2 1.25V2.75C12.7622 2.75 15.65 5.63778 15.65 9.2H17.15ZM9.2 1.25C4.80935 1.25 1.25 4.80935 1.25 9.2H2.75C2.75 5.63778 5.63778 2.75 9.2 2.75V1.25ZM1.25 9.2C1.25 13.5906 4.80935 17.15 9.2 17.15V15.65C5.63778 15.65 2.75 12.7622 2.75 9.2H1.25ZM13.7608 14.8215L17.4697 18.5303L18.5303 17.4697L14.8215 13.7608L13.7608 14.8215ZM9.2 17.15C11.3951 17.15 13.3836 16.2593 14.8215 14.8215L13.7608 13.7608C12.5928 14.9289 10.9813 15.65 9.2 15.65V17.15ZM14.8215 14.8215C16.2593 13.3836 17.15 11.3951 17.15 9.2H15.65C15.65 10.9813 14.9289 12.5928 13.7608 13.7608L14.8215 14.8215Z" fill="white"/>
</svg>
