<svg width="24" height="24" viewBox="0 0 24 24" fill="none" xmlns="http://www.w3.org/2000/svg">
<path d="M12 19.8632C10.4469 19.8632 9.11374 20.7632 8.43505 22.0598C7.16699 21.569 6.01523 20.8228 5.03822 19.879C5.39589 19.2542 5.6 18.5262 5.6 17.7522C5.6 15.5743 3.97368 13.7433 1.85687 13.5808C1.78649 13.0749 1.75 12.5573 1.75 12.0303C1.75 11.0898 1.86622 10.1787 2.0841 9.31127C4.08896 9.04015 5.6 7.26319 5.6 5.16387C5.6 4.7067 5.52875 4.26516 5.39644 3.85125C6.36821 2.99626 7.49277 2.32767 8.71949 1.89557C9.44978 2.93559 10.6419 3.62509 12 3.62509C13.3581 3.62509 14.5502 2.93559 15.2805 1.89557C16.5072 2.32768 17.6318 2.99626 18.6036 3.85126C18.4713 4.26517 18.4 4.7067 18.4 5.16387C18.4 7.26319 19.911 9.04014 21.9159 9.31127C22.1338 10.1787 22.25 11.0898 22.25 12.0303C22.25 12.5573 22.2135 13.0749 22.1431 13.5808C20.0263 13.7434 18.4 15.5743 18.4 17.7522C18.4 18.5262 18.6041 19.2542 18.9618 19.879C17.9848 20.8228 16.833 21.569 15.5649 22.0598C14.8863 20.7632 13.5531 19.8632 12 19.8632Z" stroke="white" stroke-width="1.5" stroke-linejoin="round"/>
<path d="M12 15.5C13.933 15.5 15.5 13.933 15.5 12C15.5 10.067 13.933 8.5 12 8.5C10.067 8.5 8.5 10.067 8.5 12C8.5 13.933 10.067 15.5 12 15.5Z" stroke="white" stroke-width="1.5" stroke-linejoin="round"/>
</svg>
