<svg width="18" height="18" viewBox="0 0 18 18" fill="none" xmlns="http://www.w3.org/2000/svg">
<path d="M4.86222 10.6749C5.15727 10.9633 5.29096 11.3788 5.2195 11.7851L4.44965 16.1634L8.41135 14.0514C8.77886 13.8555 9.21981 13.8555 9.58734 14.0514L13.5524 16.1648L12.7878 11.7836C12.717 11.3781 12.8504 10.9637 13.1445 10.6756L16.3934 7.49388L11.9371 6.84409C11.5312 6.78491 11.1802 6.53032 10.9978 6.16288L9.00373 2.14504L7.03813 6.15713C6.85651 6.52786 6.50355 6.785 6.09499 6.84425L1.60933 7.49469L4.86222 10.6749ZM4.86222 10.6749L4.33792 11.2111L4.86222 10.6749ZM8.77834 1.69091L8.77858 1.69139C8.7785 1.69123 8.77842 1.69107 8.77834 1.69091L9.00227 1.57977L8.77834 1.69091ZM16.754 7.14071L16.7537 7.14101L16.754 7.14071Z" stroke="white" stroke-width="1.5" stroke-linejoin="round"/>
</svg>
