<svg width="20" height="20" viewBox="0 0 20 20" fill="none" xmlns="http://www.w3.org/2000/svg">
<path d="M10.4501 2.35749C10.2658 1.98613 9.73566 1.98749 9.55326 2.35979L7.36462 6.82716C7.29197 6.97545 7.15078 7.07831 6.98736 7.10201L2.00114 7.82504C1.59128 7.88448 1.42722 8.38788 1.72335 8.6774L5.33792 12.2111C5.45594 12.3265 5.50941 12.4927 5.48083 12.6553L4.62215 17.5388C4.54998 17.9492 4.98208 18.2626 5.34981 18.0666L9.76418 15.7132C9.91118 15.6349 10.0876 15.6349 10.2346 15.7132L14.6516 18.0675C15.0191 18.2633 15.4509 17.9505 15.3793 17.5403L14.5266 12.6547C14.4983 12.4924 14.5517 12.3267 14.6693 12.2115L18.2788 8.67655C18.5744 8.38704 18.4105 7.88426 18.0011 7.82456L13.0453 7.10194C12.883 7.07827 12.7426 6.97643 12.6696 6.82946L10.4501 2.35749Z" fill="#FFCD1A"/>
</svg>
