<svg width="42" height="49" viewBox="0 0 42 49" fill="none" xmlns="http://www.w3.org/2000/svg">
<path d="M28.8086 6.65317C28.8086 6.49583 28.8974 6.35196 29.038 6.28136L40.9469 0.302577C41.2236 0.163683 41.5496 0.364817 41.5496 0.674385V41.6034L28.8086 47.9999V6.65317Z" fill="#0035F0"/>
<path fill-rule="evenodd" clip-rule="evenodd" d="M16.6691 29.1659C16.3924 29.027 16.0664 29.2281 16.0664 29.5377V41.3477C16.0664 41.505 16.1552 41.6489 16.2958 41.7195L28.8074 48.0008L41.5485 41.6563L28.8074 35.2598L16.6691 29.1659Z" fill="#4CDAF5"/>
<path d="M12.7422 41.3468C12.7422 41.5042 12.6534 41.648 12.5128 41.7186L0.603854 47.6974C0.327193 47.8363 0.00115777 47.6352 0.0011578 47.3256L0.00116138 6.39664L12.7422 0.000118256L12.7422 41.3468Z" fill="#0035F0"/>
<path fill-rule="evenodd" clip-rule="evenodd" d="M24.8817 18.8341C25.1583 18.973 25.4844 18.7719 25.4844 18.4623L25.4844 6.65234C25.4844 6.49501 25.3956 6.35113 25.255 6.28053L12.7433 -0.000828903L12.7433 -0.000878494L0.00231662 6.34363L12.7433 12.7402L12.7433 12.7402L24.8817 18.8341Z" fill="#4CDAF5"/>
</svg>
