<svg width="180" height="47" viewBox="0 0 180 47" fill="none" xmlns="http://www.w3.org/2000/svg">
<path d="M28.3719 6.37855C28.3719 6.22777 28.4593 6.08989 28.5978 6.02224L40.3265 0.292776C40.599 0.159673 40.9201 0.35242 40.9201 0.649079V39.8713L28.3719 46.0011V6.37855Z" fill="white"/>
<path fill-rule="evenodd" clip-rule="evenodd" d="M16.4159 27.9524C16.1434 27.8193 15.8223 28.0121 15.8223 28.3087V39.6263C15.8223 39.777 15.9097 39.9149 16.0482 39.9826L28.3705 46.002L40.9187 39.922L28.3705 33.7923L16.4159 27.9524Z" fill="white"/>
<path d="M12.5482 39.6255C12.5482 39.7763 12.4607 39.9141 12.3223 39.9818L0.593527 45.7113C0.321053 45.8444 -4.76742e-05 45.6516 -4.76469e-05 45.3549L-4.40258e-05 6.13274L12.5482 0.00296021L12.5482 39.6255Z" fill="white"/>
<path fill-rule="evenodd" clip-rule="evenodd" d="M24.5041 18.0516C24.7766 18.1847 25.0977 17.9919 25.0977 17.6953L25.0977 6.37778C25.0977 6.227 25.0103 6.08912 24.8718 6.02147L12.5495 0.00204745L12.5495 0.00199977L0.00131146 6.08194L12.5495 12.2117L12.5495 12.2118L24.5041 18.0516Z" fill="white"/>
<path d="M84.8422 13.4411L84.3734 16.8622L66.8271 25.4965H82.4313L84.6078 23.5742L83.8711 28.6896H59.0919L59.6277 24.9752L76.0355 16.569H60.0965L60.5318 13.4411H84.8422Z" fill="white"/>
<path d="M110.255 21.3586L108.748 16.1454L107.409 25.5617H114.039L115.512 24.3235L114.809 29.2109H101.214L104.06 9.43349H90.3647L90.8 6.30561H110.188L109.217 12.9198L112.599 8.6841H117.287L112.8 14.0602H109.05L108.949 14.777H112.633L115.345 21.3586H110.255Z" fill="white"/>
<path d="M142.901 9.43349L140.691 24.6168H136.907L139.117 9.43349H142.901ZM149.363 6.27302L146.316 27.4514C146.227 28.0596 145.937 28.5049 145.446 28.7873C144.954 29.048 144.396 29.1783 143.771 29.1783H138.715L141.595 26.3762L144.548 6.27302H149.363ZM119.863 28.9176L122.006 13.9624H136.103L135.032 21.3912C134.942 21.9994 134.775 22.4121 134.529 22.6293C134.306 22.8465 133.871 22.9551 133.223 22.9551H127.196L129.975 20.7395L130.545 16.7319H126.761L125.522 25.3336H135.199L136.505 24.4213L135.869 28.9176H119.863ZM126.492 5.81687H134.931L137.443 13.604H132.018L130.143 8.97734H129.908L126.727 13.604H121.035L126.492 5.81687Z" fill="white"/>
<path d="M162.572 5.75171H167.644L166.941 8.22795H180L179.565 11.3233H172.533L172.03 14.7444H177.79L177.355 17.8071H171.595L171.093 21.2282H177.489L177.053 24.3235H170.658L169.954 29.2109H163.893L166.472 11.3233H166.07L165.032 15.0376H159.942L162.572 5.75171ZM159.808 9.46608L156.928 29.2109H150.868L153.58 10.6716L151.604 11.03L152.14 7.31565L160.344 5.75171L159.808 9.46608Z" fill="white"/>
<path d="M86.918 7.64071H83.1007L83.3686 5.78353H77.0433L76.7384 7.64071H71.6486L71.9165 5.78353H65.6411L65.2864 7.64071H60.1966L59.7613 10.736H64.8176L64.6167 12.2674H70.9789L71.1799 10.736H76.2696L76.0687 12.2674H82.431L82.6319 10.736H86.4827L86.918 7.64071Z" fill="white"/>
<path d="M61.8594 37.2412L59.0919 44.0835H59.9586L60.7071 42.1669H63.9375L64.686 44.0835H65.5625L62.795 37.2412H61.8594ZM60.9632 41.5057L62.3124 38.0845H62.3518L63.6814 41.5057H60.9632Z" fill="white"/>
<path d="M70.6072 37.2412V44.0835H71.4148V41.1415H73.5421C73.9853 41.1415 74.3202 41.2182 74.5565 41.3907C74.8126 41.5631 74.9603 41.8602 74.9997 42.2627L75.0884 43.1731C75.1179 43.5564 75.2164 43.8535 75.374 44.0835H76.2505C76.0437 43.8343 75.9157 43.4989 75.8763 43.0773L75.7679 42.0231C75.6891 41.3332 75.3149 40.9211 74.6452 40.7773V40.7582C75.049 40.6623 75.3641 40.4707 75.6005 40.164C75.8172 39.867 75.9255 39.5316 75.9255 39.1482C75.9255 38.5158 75.7088 38.0366 75.2952 37.7108C74.8914 37.3945 74.3399 37.2412 73.6406 37.2412H70.6072ZM71.4148 37.9216H73.5421C74.0838 37.9216 74.4876 38.027 74.7437 38.2378C74.98 38.4391 75.1081 38.7553 75.1081 39.177C75.1081 39.5795 74.98 39.8861 74.7338 40.1065C74.4581 40.3365 74.0543 40.4611 73.5421 40.4611H71.4148V37.9216Z" fill="white"/>
<path d="M81.0545 37.2412V37.9216H83.5364V44.0835H84.3341V37.9216H86.816V37.2412H81.0545Z" fill="white"/>
<path d="M92.0273 37.2412V44.0835H92.8349V40.9019H96.5281V40.2215H92.8349V37.9216H96.735V37.2412H92.0273Z" fill="white"/>
<path d="M101.385 37.2412L104.192 41.3044V44.0835H104.999V41.3044L107.806 37.2412H106.831L104.596 40.5761L102.36 37.2412H101.385Z" fill="white"/>
<path d="M120.512 37.2412V44.0835H122.955C124.058 44.0835 124.905 43.7672 125.496 43.1443C126.057 42.5502 126.343 41.7165 126.343 40.6623C126.343 39.5891 126.077 38.7553 125.555 38.1804C124.984 37.5479 124.146 37.2412 123.033 37.2412H120.512ZM121.32 37.9216H122.905C123.831 37.9216 124.501 38.1516 124.934 38.6212C125.338 39.062 125.545 39.7424 125.545 40.6623C125.545 41.5536 125.318 42.234 124.885 42.6939C124.422 43.1635 123.733 43.4031 122.817 43.4031H121.32V37.9216Z" fill="white"/>
<path d="M131.799 37.2412V44.0835H136.95V43.4031H132.607V40.8923H136.546V40.2119H132.607V37.9216H136.783V37.2412H131.799Z" fill="white"/>
<path d="M144.767 37.1071C144.038 37.1071 143.438 37.2604 142.975 37.567C142.453 37.8929 142.197 38.3624 142.197 38.9566C142.197 39.5316 142.463 39.9724 143.004 40.279C143.231 40.394 143.773 40.5857 144.62 40.8348C145.407 41.0553 145.91 41.2182 146.107 41.3332C146.57 41.5727 146.806 41.9081 146.806 42.3394C146.806 42.7035 146.629 42.991 146.274 43.2018C145.92 43.4127 145.447 43.5181 144.876 43.5181C144.245 43.5181 143.773 43.3839 143.448 43.1348C143.093 42.8569 142.876 42.416 142.807 41.8219H142.01C142.069 42.6652 142.374 43.2881 142.926 43.7002C143.398 44.0451 144.048 44.2176 144.876 44.2176C145.713 44.2176 146.373 44.0451 146.865 43.7097C147.357 43.3648 147.604 42.8856 147.604 42.2915C147.604 41.6686 147.308 41.1894 146.727 40.8444C146.432 40.6719 145.821 40.4515 144.895 40.1832C144.216 39.9915 143.782 39.8478 143.605 39.752C143.201 39.5411 143.004 39.2632 143.004 38.9182C143.004 38.5253 143.172 38.2378 143.507 38.0462C143.802 37.8737 144.206 37.797 144.728 37.797C145.299 37.797 145.742 37.912 146.057 38.1612C146.363 38.4008 146.56 38.7649 146.648 39.2632H147.446C147.377 38.5445 147.111 37.9983 146.638 37.6341C146.185 37.2795 145.555 37.1071 144.767 37.1071Z" fill="white"/>
<path d="M153.019 37.2412V44.0835H153.817V37.2412H153.019Z" fill="white"/>
<path d="M162.634 37.1071C161.6 37.1071 160.783 37.4616 160.182 38.1804C159.611 38.8416 159.335 39.6753 159.335 40.6911C159.335 41.7069 159.62 42.5406 160.192 43.1827C160.802 43.8727 161.669 44.2176 162.782 44.2176C163.363 44.2176 163.905 44.141 164.417 43.9876C164.899 43.8343 165.313 43.6331 165.648 43.3648V40.5665H162.644V41.2469H164.85V42.991C164.604 43.1443 164.308 43.2785 163.964 43.3743C163.609 43.4702 163.245 43.5277 162.861 43.5277C161.945 43.5277 161.255 43.2593 160.792 42.7323C160.359 42.234 160.142 41.5536 160.142 40.6911C160.142 39.8095 160.359 39.1099 160.812 38.5924C161.265 38.0654 161.866 37.8066 162.634 37.8066C163.255 37.8066 163.757 37.9504 164.141 38.2474C164.505 38.5253 164.742 38.9182 164.85 39.4357H165.658C165.53 38.6883 165.224 38.1229 164.732 37.73C164.21 37.3083 163.511 37.1071 162.634 37.1071Z" fill="white"/>
<path d="M171.331 37.2412V44.0835H172.139V38.4583H172.168L176.167 44.0835H176.994V37.2412H176.186V42.8089H176.157L172.178 37.2412H171.331Z" fill="white"/>
</svg>
